<?xml version="1.0" standalone="no"?>
<!DOCTYPE svg PUBLIC "-//W3C//DTD SVG 20010904//EN"
 "http://www.w3.org/TR/2001/REC-SVG-20010904/DTD/svg10.dtd">
<svg version="1.0" xmlns="http://www.w3.org/2000/svg"
 width="800.000000pt" height="800.000000pt" viewBox="0 0 800.000000 800.000000"
 preserveAspectRatio="xMidYMid meet">
<metadata>
Created by potrace 1.16, written by Peter Selinger 2001-2019
</metadata>
<g transform="translate(0.000000,800.000000) scale(0.100000,-0.100000)"
fill="#000000" stroke="none">
<path d="M6150 6785 c-72 -18 -140 -47 -198 -86 -26 -17 -453 -437 -949 -933
l-903 -901 -882 882 c-640 639 -901 893 -947 922 -80 51 -203 91 -302 98 -92
7 -206 -16 -295 -58 -65 -30 -212 -155 -272 -231 -75 -94 -112 -206 -112 -336
0 -107 14 -171 58 -262 34 -73 60 -100 941 -983 l906 -907 -875 -878 c-790
-791 -880 -885 -923 -958 -66 -112 -98 -210 -105 -316 -6 -113 10 -193 60
-298 33 -70 56 -100 127 -170 98 -97 170 -140 287 -170 151 -39 281 -23 428
52 79 40 105 65 979 937 l897 896 898 -896 c874 -873 899 -897 978 -937 101
-51 184 -72 294 -72 166 0 283 51 411 179 69 69 94 103 128 171 71 145 88 282
51 424 -40 157 -15 128 -909 1056 -453 470 -851 883 -885 918 l-61 62 896 898
c873 874 897 899 937 978 56 110 75 195 69 309 -8 167 -74 300 -226 453 -146
148 -317 202 -501 157z"/>
</g>
</svg>
