<?xml version="1.0" standalone="no"?>
<!DOCTYPE svg PUBLIC "-//W3C//DTD SVG 20010904//EN"
 "http://www.w3.org/TR/2001/REC-SVG-20010904/DTD/svg10.dtd">
<svg version="1.0" xmlns="http://www.w3.org/2000/svg"
 width="1200.000000pt" height="1200.000000pt" viewBox="0 0 1200.000000 1200.000000"
 preserveAspectRatio="xMidYMid meet">
<metadata>
Created by potrace 1.16, written by Peter Selinger 2001-2019
</metadata>
<g transform="translate(0.000000,1200.000000) scale(0.100000,-0.100000)"
fill="#000000" stroke="none">
<path d="M3502 10610 c-66 -14 -152 -48 -202 -80 -25 -16 -449 -433 -942 -927
-886 -887 -898 -899 -932 -974 -44 -95 -56 -144 -56 -239 0 -95 12 -147 57
-240 35 -74 66 -106 3037 -3078 1650 -1652 3008 -3007 3016 -3012 8 -4 94 -26
190 -49 96 -23 204 -48 240 -57 36 -9 119 -29 185 -44 189 -44 654 -154 920
-217 83 -19 195 -45 250 -58 106 -25 318 -75 555 -131 603 -143 672 -158 714
-150 37 7 78 39 101 79 9 17 16 16 120 -7 60 -14 111 -23 113 -21 3 2 -17 93
-43 202 -70 298 -113 477 -140 588 -22 93 -62 257 -134 565 -17 69 -48 199
-69 290 -22 91 -56 233 -76 315 -19 83 -51 215 -70 295 -19 80 -37 160 -41
178 -4 17 -8 32 -11 32 -2 0 -37 -34 -77 -75 -40 -41 -78 -75 -84 -75 -6 0
-16 28 -22 62 -7 35 -30 137 -52 228 -89 376 -98 417 -104 450 -6 30 -412 440
-2998 3028 -1754 1755 -3016 3010 -3050 3034 -108 74 -280 112 -395 88z m204
-310 c43 -21 94 -64 184 -155 l125 -125 -886 -888 c-845 -846 -887 -889 -900
-937 -7 -27 -13 -70 -13 -95 1 -94 23 -123 349 -450 168 -168 305 -310 305
-316 0 -5 -29 -39 -65 -74 l-65 -64 -515 514 c-357 358 -523 530 -542 565 -38
69 -39 158 -1 230 20 37 250 273 900 923 480 479 875 872 878 872 3 0 23 7 45
15 67 24 134 19 201 -15z m3699 -3680 l2190 -2190 -1020 -1020 c-561 -561
-1022 -1020 -1025 -1020 -10 0 -4600 4596 -4600 4606 0 5 29 39 65 74 l65 65
108 -108 c59 -59 112 -107 117 -106 6 0 435 427 955 948 520 521 947 946 950
944 3 -1 991 -988 2195 -2193z m2352 -2618 c18 -75 46 -193 63 -262 16 -69 37
-158 47 -198 l16 -72 -681 -682 -682 -681 -68 12 c-37 6 -155 34 -262 60 -107
27 -230 57 -274 66 l-78 18 938 938 c517 517 941 939 944 939 3 0 19 -62 37
-138z"/>
<path d="M5445 7679 c-19 -17 -40 -47 -46 -68 -26 -86 -104 -1 1336 -1441
l1325 -1325 71 0 c67 0 72 2 99 32 33 37 45 86 35 140 -6 33 -156 187 -1318
1351 -722 722 -1324 1320 -1339 1328 -15 7 -50 14 -77 14 -42 0 -56 -5 -86
-31z"/>
<path d="M4885 7119 c-46 -41 -62 -94 -46 -151 11 -38 169 -200 1329 -1360
1186 -1185 1321 -1318 1360 -1328 115 -30 211 73 171 182 -11 30 -311 335
-1319 1344 -718 718 -1316 1314 -1329 1325 -17 13 -39 19 -77 19 -45 0 -59 -5
-89 -31z"/>
<path d="M4330 6564 c-56 -47 -73 -107 -50 -171 11 -29 2574 -2602 2644 -2654
108 -80 249 17 221 153 -6 27 -244 271 -1323 1351 -725 725 -1329 1325 -1344
1333 -45 23 -112 18 -148 -12z"/>
</g>
</svg>
